<svg version="1.1" xmlns="http://www.w3.org/2000/svg" xmlns:xlink="http://www.w3.org/1999/xlink" width="112" height="112" viewBox="0,0,112,112"><defs><linearGradient x1="240" y1="126" x2="240" y2="234" gradientUnits="userSpaceOnUse" id="color-1"><stop offset="0" stop-color="#ffef66"/><stop offset="1" stop-color="#ffcc66"/></linearGradient></defs><g transform="translate(-184,-124)"><g data-paper-data="{&quot;isPaintingLayer&quot;:true}" fill-rule="nonzero" stroke="#000000" stroke-width="4" stroke-linecap="butt" stroke-linejoin="miter" stroke-miterlimit="10" stroke-dasharray="" stroke-dashoffset="0" style="mix-blend-mode: normal"><path d="M294,180c0,29.82338 -24.17662,54 -54,54c-29.82337,0 -54,-24.17662 -54,-54c0,-29.82337 24.17663,-54 54,-54c29.82338,0 54,24.17663 54,54z" fill="url(#color-1)"/><g><path d="M270.83096,180c0,18.64915 -13.80349,33.76727 -30.83097,33.76727c-17.02748,0 -30.83097,-15.1181 -30.83097,-33.76727c0,-18.64915 13.8035,-33.76727 30.83099,-33.76727c17.02748,0 30.83097,15.11812 30.83097,33.76727z" fill="#fff068"/><path d="M254.05304,180.4022c0,9.54026 -6.71245,17.27417 -14.99268,17.27417c-8.28022,0 -14.99267,-7.73391 -14.99267,-17.27417c0,-9.54024 6.71245,-17.27415 14.99267,-17.27415c8.28023,0 14.99268,7.73391 14.99268,17.27415z" fill="#fff170"/></g></g></g></svg>